<mxfile host="app.diagrams.net" modified="2021-04-03T12:59:34.430Z" agent="5.0 (Windows NT 10.0; WOW64) AppleWebKit/537.36 (KHTML, like Gecko) Chrome/89.0.4389.114 Safari/537.36" etag="90Q2ww6igpPowQ3uTYkd" version="14.5.6" type="github">
  <diagram id="EfPCmcZfif2chKpgcsbA" name="Page-1">
    <mxGraphModel dx="868" dy="450" grid="1" gridSize="10" guides="1" tooltips="1" connect="1" arrows="1" fold="1" page="1" pageScale="1" pageWidth="827" pageHeight="1169" math="0" shadow="0">
      <root>
        <mxCell id="0" />
        <mxCell id="1" parent="0" />
        <mxCell id="BzVGBPA7j48-fShJR5U8-1" value="ReentrantLock的lock方法" style="rounded=0;whiteSpace=wrap;html=1;fillColor=#dae8fc;strokeColor=#6c8ebf;sketch=1;shadow=0;" parent="1" vertex="1">
          <mxGeometry x="20" y="20" width="180" height="40" as="geometry" />
        </mxCell>
      </root>
    </mxGraphModel>
  </diagram>
</mxfile>
